# xmcd
#
# Track frame offsets: 
#        150
#        10859
#        22513
#        37808
#        49690
#        62593
#        76079
#        88459
#        102532
#        115191
#        130468
#        140548
#        152260
#        163808
#        181188
#        191248
#        204384
#        216930
#        228210
#        240873
#
# Disc length: 3415 seconds
#
# Revision: 0
# Processed by: cddbd v1.5.2PL0 Copyright (c) Steve Scherf et al.
# Submitted via: ExactAudioCopyFreeDBPlugin 1.0
#
DISCID=fb0d5514
DTITLE=Various Artist - Heart Of Texas Duets
DYEAR=1900
DGENRE=Country
TTITLE0=Johnny Bush and Jim Ed Brown - Pop A Top
TTITLE1=Curtis Potter and Justin Trevino - Odds and Ends
TTITLE2=Darrell McCall and Willie Nelson - Lily Dale
TTITLE3=Tony Booth and Amber Digby - Don't Call Me From A Honky Tonk
TTITLE4=Joe Paul Nichols and Norma Jean - Have I Told You Lately That I 
TTITLE4=Love You
TTITLE5=Justin Trevino and Jan Howard - Gold Watch and Chain
TTITLE6=Georgette Jones and George Jones - You and Me and Time
TTITLE7=Landon Dodd and Amber Digby - Mr Right and Mrs Wrong
TTITLE8=Bobby G Rice and Dottsy - I Think We're On To Something
TTITLE9=Kim Murray and Tony Booth - What My Thoughts Do All The Time
TTITLE10=Norma Jean and Wanda Jackson - Ashes Of Love
TTITLE11=Floyd Tillman and Dolly Parton - Slippin Around
TTITLE12=Frankie Miller and Mona McCall - Put Me In Your Pocket
TTITLE13=Johnny Bush and Johnny Rodriguez - The Rio Grande Runs Red
TTITLE14=George Hamilton IV and Tony Booth - Somewhere South Of San Anto
TTITLE14=ne
TTITLE15=Joe Paul Nichols and Curtis Potter - I Miss My Mind The Most
TTITLE16=Rance Norton and Justin Trevino - Big Blue Diamonds
TTITLE17=Amber Digby and Georgette Jones - Run Woman Run
TTITLE18=Darrell McCall and Johnny Paycheck - Pictures Can't Talk Back
TTITLE19=Justin Trevino and Dottsy - We Talk About The Weather
EXTD=
EXTT0=
EXTT1=
EXTT2=
EXTT3=
EXTT4=
EXTT5=
EXTT6=
EXTT7=
EXTT8=
EXTT9=
EXTT10=
EXTT11=
EXTT12=
EXTT13=
EXTT14=
EXTT15=
EXTT16=
EXTT17=
EXTT18=
EXTT19=
PLAYORDER=
